<svg xmlns="http://www.w3.org/2000/svg" xmlns:xlink="http://www.w3.org/1999/xlink" width="450" height="450" viewBox="0 0 64 64"><defs><linearGradient id="a"><stop offset="0" stop-color="#000092"/><stop offset="1" stop-color="#ff00f3"/></linearGradient><linearGradient id="b" x1="4.395" x2="56" y1="31.558" y2="31.558" gradientUnits="userSpaceOnUse" xlink:href="#a"/></defs><path style="line-height:normal;text-indent:0;text-align:start;text-decoration-line:none;text-decoration-style:solid;text-decoration-color:#000;text-transform:none;block-progression:tb;isolation:auto;mix-blend-mode:normal" fill="url(#b)" fill-rule="evenodd" d="M 31.5 6 C 29.572926 6 28 7.57292 28 9.5 C 27.999988 11.255805 29.310322 12.703249 31 12.949219 L 31 21.253906 L 18.271484 30.474609 A 0.50005 0.50005 0 0 0 18.189453 30.546875 L 11.378906 29.296875 C 11.442824 27.590049 10.25469 26.039896 8.5273438 25.722656 C 6.6319729 25.374656 4.801217 26.637803 4.453125 28.533203 C 4.1050616 30.428503 5.3683109 32.259322 7.2636719 32.607422 C 8.990826 32.924628 10.650363 31.897087 11.197266 30.279297 L 18.265625 31.578125 L 22.876953 45.841797 L 19.876953 50.455078 C 18.326088 49.73883 16.438142 50.238558 15.480469 51.710938 C 14.429771 53.326338 14.890423 55.502034 16.505859 56.552734 C 18.121295 57.603434 20.296958 57.142744 21.347656 55.527344 C 22.304696 54.05594 21.996222 52.127603 20.714844 51 L 23.580078 46.59375 L 39.433594 46.617188 L 42.285156 51 C 41.003778 52.127603 40.695304 54.05594 41.652344 55.527344 C 42.703042 57.142744 44.878705 57.603434 46.494141 56.552734 C 48.109577 55.502034 48.570229 53.324384 47.519531 51.708984 C 46.561858 50.236514 44.673912 49.738816 43.123047 50.455078 L 40.101562 45.808594 L 44.748047 31.576172 L 51.804688 30.279297 C 52.351412 31.897445 54.010946 32.924661 55.738281 32.607422 C 57.633652 32.259322 58.896925 30.428603 58.548828 28.533203 C 58.200748 26.637903 56.368027 25.374556 54.472656 25.722656 C 52.745933 26.039783 51.560061 27.590843 51.623047 29.296875 L 44.779297 30.554688 A 0.50005 0.50005 0 0 0 44.730469 30.511719 L 32 21.236328 L 32 12.949219 C 33.689678 12.703249 35.000012 11.255805 35 9.5 C 35 7.57292 33.427074 6 31.5 6 z M 31.5 7 C 32.886634 7 34 8.11336 34 9.5 C 34.000009 10.88664 32.886641 12 31.5 12 C 30.113359 12 28.999991 10.88664 29 9.5 C 29 8.11336 30.113366 7 31.5 7 z M 31.511719 22.117188 L 43.847656 31.105469 L 39.109375 45.615234 L 23.847656 45.59375 L 19.150391 31.072266 L 31.511719 22.117188 z M 7.8398438 26.664062 C 8.0062969 26.660927 8.1771787 26.675719 8.3476562 26.707031 C 9.7114869 26.957531 10.603987 28.253288 10.353516 29.617188 C 10.103037 30.980987 8.8071802 31.873447 7.4433594 31.623047 C 6.0795485 31.372547 5.1870407 30.076691 5.4375 28.712891 C 5.6566619 27.519566 6.6746715 26.68601 7.8398438 26.664062 z M 55.160156 26.666016 C 56.325329 26.688011 57.345296 27.521519 57.564453 28.714844 C 57.814937 30.078744 56.920461 31.3745 55.556641 31.625 C 54.19282 31.8755 52.896968 30.981087 52.646484 29.617188 C 52.396019 28.253388 53.290476 26.957531 54.654297 26.707031 C 54.824774 26.675731 54.993703 26.662873 55.160156 26.666016 z M 18.371094 51.115234 C 18.852002 51.107335 19.341447 51.2399 19.777344 51.523438 C 20.939737 52.279438 21.265799 53.820022 20.509766 54.982422 C 19.753732 56.144822 18.213173 56.470844 17.050781 55.714844 C 15.888388 54.958844 15.562326 53.418259 16.318359 52.255859 C 16.790881 51.529359 17.569579 51.128399 18.371094 51.115234 z M 44.628906 51.115234 C 45.430421 51.128399 46.209119 51.529359 46.681641 52.255859 C 47.437674 53.418259 47.111612 54.958844 45.949219 55.714844 C 44.786827 56.470844 43.246268 56.142869 42.490234 54.980469 C 41.734201 53.818069 42.060264 52.279438 43.222656 51.523438 C 43.658553 51.2399 44.147998 51.107335 44.628906 51.115234 z " color="#000" font-family="sans-serif" font-weight="400" overflow="visible"/></svg>
