<svg xmlns="http://www.w3.org/2000/svg" xmlns:xlink="http://www.w3.org/1999/xlink" width="450" height="450" viewBox="0 0 64 64"><defs><linearGradient id="a"><stop offset="0" stop-color="#000092"/><stop offset="1" stop-color="#ff00f3"/></linearGradient><linearGradient id="b" x1="7.982" x2="55" y1="32" y2="32" gradientUnits="userSpaceOnUse" xlink:href="#a"/></defs><path style="line-height:normal;text-indent:0;text-align:start;text-decoration-line:none;text-decoration-style:solid;text-decoration-color:#000;text-transform:none;block-progression:tb;isolation:auto;mix-blend-mode:normal" fill="url(#b)" d="M 34.5 7 A 0.50005 0.50005 0 0 0 34 7.5 L 34 11.5 A 0.50005 0.50005 0 0 0 34.5 12 L 38.5 12 A 0.50005 0.50005 0 0 0 39 11.5 L 39 7.5 A 0.50005 0.50005 0 0 0 38.5 7 L 34.5 7 z M 35 8 L 38 8 L 38 11 L 35 11 L 35 8 z M 34.5 13 A 0.50005 0.50005 0 0 0 34 13.5 L 34 17.5 A 0.50005 0.50005 0 0 0 34.5 18 L 38.5 18 A 0.50005 0.50005 0 0 0 39 17.5 L 39 13.5 A 0.50005 0.50005 0 0 0 38.5 13 L 34.5 13 z M 50.5 13 A 0.50005 0.50005 0 0 0 50 13.5 L 50 17.5 A 0.50005 0.50005 0 0 0 50.5 18 L 54.5 18 A 0.50005 0.50005 0 0 0 55 17.5 L 55 13.5 A 0.50005 0.50005 0 0 0 54.5 13 L 50.5 13 z M 35 14 L 38 14 L 38 17 L 35 17 L 35 14 z M 51 14 L 54 14 L 54 17 L 51 17 L 51 14 z M 18.5 19 A 0.50005 0.50005 0 0 0 18 19.5 L 18 23.5 A 0.50005 0.50005 0 0 0 18.5 24 L 22.5 24 A 0.50005 0.50005 0 0 0 23 23.5 L 23 19.5 A 0.50005 0.50005 0 0 0 22.5 19 L 18.5 19 z M 34.5 19 A 0.50005 0.50005 0 0 0 34 19.5 L 34 23.5 A 0.50005 0.50005 0 0 0 34.5 24 L 38.5 24 A 0.50005 0.50005 0 0 0 39 23.5 L 39 19.5 A 0.50005 0.50005 0 0 0 38.5 19 L 34.5 19 z M 50.5 19 A 0.50005 0.50005 0 0 0 50 19.5 L 50 23.5 A 0.50005 0.50005 0 0 0 50.5 24 L 54.5 24 A 0.50005 0.50005 0 0 0 55 23.5 L 55 19.5 A 0.50005 0.50005 0 0 0 54.5 19 L 50.5 19 z M 19 20 L 22 20 L 22 23 L 19 23 L 19 20 z M 35 20 L 38 20 L 38 23 L 35 23 L 35 20 z M 51 20 L 54 20 L 54 23 L 51 23 L 51 20 z M 18.5 25 A 0.50005 0.50005 0 0 0 18 25.5 L 18 29.5 A 0.50005 0.50005 0 0 0 18.5 30 L 22.5 30 A 0.50005 0.50005 0 0 0 23 29.5 L 23 25.5 A 0.50005 0.50005 0 0 0 22.5 25 L 18.5 25 z M 34.5 25 A 0.50005 0.50005 0 0 0 34 25.5 L 34 29.5 A 0.50005 0.50005 0 0 0 34.5 30 L 38.5 30 A 0.50005 0.50005 0 0 0 39 29.5 L 39 25.5 A 0.50005 0.50005 0 0 0 38.5 25 L 34.5 25 z M 42.5 25 A 0.50005 0.50005 0 0 0 42 25.5 L 42 29.5 A 0.50005 0.50005 0 0 0 42.5 30 L 46.5 30 A 0.50005 0.50005 0 0 0 47 29.5 L 47 25.5 A 0.50005 0.50005 0 0 0 46.5 25 L 42.5 25 z M 50.5 25 A 0.50005 0.50005 0 0 0 50 25.5 L 50 29.5 A 0.50005 0.50005 0 0 0 50.5 30 L 54.5 30 A 0.50005 0.50005 0 0 0 55 29.5 L 55 25.5 A 0.50005 0.50005 0 0 0 54.5 25 L 50.5 25 z M 19 26 L 22 26 L 22 29 L 19 29 L 19 26 z M 35 26 L 38 26 L 38 29 L 35 29 L 35 26 z M 43 26 L 46 26 L 46 29 L 43 29 L 43 26 z M 51 26 L 54 26 L 54 29 L 51 29 L 51 26 z M 10.5 31 A 0.50005 0.50005 0 0 0 10 31.5 L 10 35.5 A 0.50005 0.50005 0 0 0 10.5 36 L 14.5 36 A 0.50005 0.50005 0 0 0 15 35.5 L 15 31.5 A 0.50005 0.50005 0 0 0 14.5 31 L 10.5 31 z M 18.5 31 A 0.50005 0.50005 0 0 0 18 31.5 L 18 35.5 A 0.50005 0.50005 0 0 0 18.5 36 L 22.5 36 A 0.50005 0.50005 0 0 0 23 35.5 L 23 31.5 A 0.50005 0.50005 0 0 0 22.5 31 L 18.5 31 z M 34.5 31 A 0.50005 0.50005 0 0 0 34 31.5 L 34 35.5 A 0.50005 0.50005 0 0 0 34.5 36 L 38.5 36 A 0.50005 0.50005 0 0 0 39 35.5 L 39 31.5 A 0.50005 0.50005 0 0 0 38.5 31 L 34.5 31 z M 42.5 31 A 0.50005 0.50005 0 0 0 42 31.5 L 42 35.5 A 0.50005 0.50005 0 0 0 42.5 36 L 46.5 36 A 0.50005 0.50005 0 0 0 47 35.5 L 47 31.5 A 0.50005 0.50005 0 0 0 46.5 31 L 42.5 31 z M 50.5 31 A 0.50005 0.50005 0 0 0 50 31.5 L 50 35.5 A 0.50005 0.50005 0 0 0 50.5 36 L 54.5 36 A 0.50005 0.50005 0 0 0 55 35.5 L 55 31.5 A 0.50005 0.50005 0 0 0 54.5 31 L 50.5 31 z M 11 32 L 14 32 L 14 35 L 11 35 L 11 32 z M 19 32 L 22 32 L 22 35 L 19 35 L 19 32 z M 35 32 L 38 32 L 38 35 L 35 35 L 35 32 z M 43 32 L 46 32 L 46 35 L 43 35 L 43 32 z M 51 32 L 54 32 L 54 35 L 51 35 L 51 32 z M 10.5 37 A 0.50005 0.50005 0 0 0 10 37.5 L 10 41.5 A 0.50005 0.50005 0 0 0 10.5 42 L 14.5 42 A 0.50005 0.50005 0 0 0 15 41.5 L 15 37.5 A 0.50005 0.50005 0 0 0 14.5 37 L 10.5 37 z M 18.5 37 A 0.50005 0.50005 0 0 0 18 37.5 L 18 41.5 A 0.50005 0.50005 0 0 0 18.5 42 L 22.5 42 A 0.50005 0.50005 0 0 0 23 41.5 L 23 37.5 A 0.50005 0.50005 0 0 0 22.5 37 L 18.5 37 z M 26.5 37 A 0.50005 0.50005 0 0 0 26 37.5 L 26 41.5 A 0.50005 0.50005 0 0 0 26.5 42 L 30.5 42 A 0.50005 0.50005 0 0 0 31 41.5 L 31 37.5 A 0.50005 0.50005 0 0 0 30.5 37 L 26.5 37 z M 34.5 37 A 0.50005 0.50005 0 0 0 34 37.5 L 34 41.5 A 0.50005 0.50005 0 0 0 34.5 42 L 38.5 42 A 0.50005 0.50005 0 0 0 39 41.5 L 39 37.5 A 0.50005 0.50005 0 0 0 38.5 37 L 34.5 37 z M 42.5 37 A 0.50005 0.50005 0 0 0 42 37.5 L 42 41.5 A 0.50005 0.50005 0 0 0 42.5 42 L 46.5 42 A 0.50005 0.50005 0 0 0 47 41.5 L 47 37.5 A 0.50005 0.50005 0 0 0 46.5 37 L 42.5 37 z M 50.5 37 A 0.50005 0.50005 0 0 0 50 37.5 L 50 41.5 A 0.50005 0.50005 0 0 0 50.5 42 L 54.5 42 A 0.50005 0.50005 0 0 0 55 41.5 L 55 37.5 A 0.50005 0.50005 0 0 0 54.5 37 L 50.5 37 z M 11 38 L 14 38 L 14 41 L 11 41 L 11 38 z M 19 38 L 22 38 L 22 41 L 19 41 L 19 38 z M 27 38 L 30 38 L 30 41 L 27 41 L 27 38 z M 35 38 L 38 38 L 38 41 L 35 41 L 35 38 z M 43 38 L 46 38 L 46 41 L 43 41 L 43 38 z M 51 38 L 54 38 L 54 41 L 51 41 L 51 38 z M 10.5 43 A 0.50005 0.50005 0 0 0 10 43.5 L 10 47.5 A 0.50005 0.50005 0 0 0 10.5 48 L 14.5 48 A 0.50005 0.50005 0 0 0 15 47.5 L 15 43.5 A 0.50005 0.50005 0 0 0 14.5 43 L 10.5 43 z M 18.5 43 A 0.50005 0.50005 0 0 0 18 43.5 L 18 47.5 A 0.50005 0.50005 0 0 0 18.5 48 L 22.5 48 A 0.50005 0.50005 0 0 0 23 47.5 L 23 43.5 A 0.50005 0.50005 0 0 0 22.5 43 L 18.5 43 z M 26.5 43 A 0.50005 0.50005 0 0 0 26 43.5 L 26 47.5 A 0.50005 0.50005 0 0 0 26.5 48 L 30.5 48 A 0.50005 0.50005 0 0 0 31 47.5 L 31 43.5 A 0.50005 0.50005 0 0 0 30.5 43 L 26.5 43 z M 34.5 43 A 0.50005 0.50005 0 0 0 34 43.5 L 34 47.5 A 0.50005 0.50005 0 0 0 34.5 48 L 38.5 48 A 0.50005 0.50005 0 0 0 39 47.5 L 39 43.5 A 0.50005 0.50005 0 0 0 38.5 43 L 34.5 43 z M 42.5 43 A 0.50005 0.50005 0 0 0 42 43.5 L 42 47.5 A 0.50005 0.50005 0 0 0 42.5 48 L 46.5 48 A 0.50005 0.50005 0 0 0 47 47.5 L 47 43.5 A 0.50005 0.50005 0 0 0 46.5 43 L 42.5 43 z M 50.5 43 A 0.50005 0.50005 0 0 0 50 43.5 L 50 47.5 A 0.50005 0.50005 0 0 0 50.5 48 L 54.5 48 A 0.50005 0.50005 0 0 0 55 47.5 L 55 43.5 A 0.50005 0.50005 0 0 0 54.5 43 L 50.5 43 z M 11 44 L 14 44 L 14 47 L 11 47 L 11 44 z M 19 44 L 22 44 L 22 47 L 19 47 L 19 44 z M 27 44 L 30 44 L 30 47 L 27 47 L 27 44 z M 35 44 L 38 44 L 38 47 L 35 47 L 35 44 z M 43 44 L 46 44 L 46 47 L 43 47 L 43 44 z M 51 44 L 54 44 L 54 47 L 51 47 L 51 44 z M 10.5 49 A 0.50005 0.50005 0 0 0 10 49.5 L 10 53.5 A 0.50005 0.50005 0 0 0 10.5 54 L 14.5 54 A 0.50005 0.50005 0 0 0 15 53.5 L 15 49.5 A 0.50005 0.50005 0 0 0 14.5 49 L 10.5 49 z M 18.5 49 A 0.50005 0.50005 0 0 0 18 49.5 L 18 53.5 A 0.50005 0.50005 0 0 0 18.5 54 L 22.5 54 A 0.50005 0.50005 0 0 0 23 53.5 L 23 49.5 A 0.50005 0.50005 0 0 0 22.5 49 L 18.5 49 z M 26.5 49 A 0.50005 0.50005 0 0 0 26 49.5 L 26 53.5 A 0.50005 0.50005 0 0 0 26.5 54 L 30.5 54 A 0.50005 0.50005 0 0 0 31 53.5 L 31 49.5 A 0.50005 0.50005 0 0 0 30.5 49 L 26.5 49 z M 34.5 49 A 0.50005 0.50005 0 0 0 34 49.5 L 34 53.5 A 0.50005 0.50005 0 0 0 34.5 54 L 38.5 54 A 0.50005 0.50005 0 0 0 39 53.5 L 39 49.5 A 0.50005 0.50005 0 0 0 38.5 49 L 34.5 49 z M 42.5 49 A 0.50005 0.50005 0 0 0 42 49.5 L 42 53.5 A 0.50005 0.50005 0 0 0 42.5 54 L 46.5 54 A 0.50005 0.50005 0 0 0 47 53.5 L 47 49.5 A 0.50005 0.50005 0 0 0 46.5 49 L 42.5 49 z M 50.5 49 A 0.50005 0.50005 0 0 0 50 49.5 L 50 53.5 A 0.50005 0.50005 0 0 0 50.5 54 L 54.5 54 A 0.50005 0.50005 0 0 0 55 53.5 L 55 49.5 A 0.50005 0.50005 0 0 0 54.5 49 L 50.5 49 z M 11 50 L 14 50 L 14 53 L 11 53 L 11 50 z M 19 50 L 22 50 L 22 53 L 19 53 L 19 50 z M 27 50 L 30 50 L 30 53 L 27 53 L 27 50 z M 35 50 L 38 50 L 38 53 L 35 53 L 35 50 z M 43 50 L 46 50 L 46 53 L 43 53 L 43 50 z M 51 50 L 54 50 L 54 53 L 51 53 L 51 50 z M 8.4570312 56 A 0.50004997 0.50004997 0 0 0 8.5078125 57 L 56.492188 57 A 0.50004997 0.50004997 0 1 0 56.492188 56 L 8.5078125 56 A 0.50004997 0.50004997 0 0 0 8.4570312 56 z " color="#000" font-family="sans-serif" font-weight="400" overflow="visible"/></svg>
