<svg xmlns="http://www.w3.org/2000/svg" xmlns:xlink="http://www.w3.org/1999/xlink" width="450" height="450" viewBox="0 0 32 32"><defs><linearGradient id="a"><stop offset="0" stop-color="#000092"/><stop offset="1" stop-color="#ff00f3"/></linearGradient><linearGradient id="b" x2="29" y1="15.999" y2="15.999" gradientUnits="userSpaceOnUse" xlink:href="#a"/></defs><path fill="url(#b)" d="M 1,-0.00195313 1,0 C 1,0 0,0 0,1.4667969 l 0,0.066406 c 0,0.6378571 0.4247256,1.17278 1,1.375 L 1,21 0.515625,21 C 0.22968952,21 0,21.223 0,21.5 0,21.777 0.22968952,22 0.515625,22 L 16,22 l 0,3.361328 -3.433594,5.894531 c -0.138502,0.237749 -0.05629,0.540474 0.183594,0.677735 0.239895,0.137265 0.543138,0.05611 0.681641,-0.181641 L 16,27.34375 16,31.5 c 0,0.277 0.223,0.5 0.5,0.5 0.277,0 0.5,-0.223 0.5,-0.5 l 0,-4.15625 2.568359,4.408203 c 0.138503,0.237749 0.441746,0.318906 0.681641,0.181641 0.239886,-0.137261 0.322096,-0.439986 0.183594,-0.677735 L 17,25.361328 17,22 31.484375,22 C 31.77031,22 32,21.777 32,21.5 32,21.223 31.77031,21 31.484375,21 L 31,21 31,2.9082031 c 0.574993,-0.202463 1,-0.737324 1,-1.375 l 0,-0.068359 C 32,0.65224375 31.312874,-0.00195313 30.5,-0.00195313 Z M 2,1 30.5,1 C 30.79501,1 31,1.2084438 31,1.4648438 l 0,0.068359 c 0,0.2564 -0.20499,0.4648438 -0.5,0.4648438 l -29,0 C 1.2051353,1.9982469 1,1.7896031 1,1.5332031 l 0,-0.066406 c 0,-0.2564 0.2049901,-0.4648438 0.5,-0.4648438 l 0.5,0 z m 0,1.9980469 28,0 L 30,21 2,21 Z M 9,4 C 8.9656317,4 8.9326914,4.007107 8.8984375,4.0078125 8.7073814,4.0117 8.5153284,4.0227336 8.3242188,4.0488281 8.2009624,4.065725 8.0817126,4.095237 7.9609375,4.1210938 7.8763153,4.1391079 7.7911665,4.149332 7.7070312,4.171875 l -0.171875,0.046875 -0.3069757,0.1151766 0.00425,0.00201 C 5.966793,4.8171217 4.9155561,5.792378 4.3789105,7.0878901 c -0.7726863,1.8656 -0.3416317,4.0217189 1.0859376,5.4492179 1.4277518,1.427801 3.5840006,1.856686 5.4492179,1.083986 1.294684,-0.536276 2.267094,-1.587187 2.748047,-2.851564 l 0.002,0.0098 0.164062,-0.482422 c 0.03026,-0.112938 0.04624,-0.228005 0.06836,-0.3417974 0.0171,-0.087371 0.03833,-0.1730851 0.05078,-0.2617187 0.02361,-0.168926 0.03283,-0.3368068 0.03906,-0.5058594 C 13.988719,9.1244939 13.999999,9.0634066 14,9 L 13.998,9 C 13.997148,7.6916844 13.483515,6.4132255 12.535156,5.4648438 11.586003,4.515681 10.308613,3.9999432 9,4 Z m 17,0 0,0.5 0,15.5 3,0 0,-16 z m 1,1 1,0 0,14 -1,0 z M 9.3964844,5.1074219 c 0.9054606,0.061233 1.7689786,0.4017531 2.4316406,1.0644531 0.883375,0.8834 1.193411,2.1272563 1.035156,3.3476562 L 12.089844,9.3125 C 12.180554,8.3705 11.943628,7.4201813 11.261719,6.7382812 10.579794,6.0562812 9.6314678,5.8194563 8.6894531,5.9101562 L 8.4824219,5.1386719 c 0.3050025,-0.039575 0.6122422,-0.051661 0.9140625,-0.03125 z M 7.4921875,5.3046875 7.7207031,6.1582031 c -0.7433064,0.293344 -1.3569014,0.842646 -1.6777343,1.6171875 -0.4951664,1.1955 -0.2221383,2.5727814 0.6933593,3.4882814 0.9151986,0.9152 2.2923037,1.190712 3.4882809,0.695312 0.774273,-0.320724 1.323779,-0.936623 1.617188,-1.679687 l 0.851562,0.230469 c -0.396791,0.969447 -1.158238,1.771701 -2.162109,2.1875 -1.493084,0.6185 -3.2168107,0.275412 -4.359375,-0.867188 C 5.0291647,10.687378 4.6844201,8.9636031 5.3027344,7.4707031 5.7189409,6.4659416 6.5217236,5.701747 7.4921875,5.3046875 Z m 1.5117187,1.4960937 c 0.5740365,2.672e-4 1.1322868,0.2258063 1.5507818,0.6445313 0.419436,0.4195047 0.646578,0.9773927 0.646484,1.5527344 l -0.002,0 c -4e-6,0.223825 -0.033,0.4424125 -0.0957,0.6484375 C 10.915421,10.264559 10.461583,10.776478 9.8417969,11.033203 9.0151508,11.375603 8.076199,11.187487 7.4433594,10.554688 6.810841,9.9221875 6.6241977,8.98345 6.9667969,8.15625 7.2217023,7.5408799 7.7288092,7.0909744 8.3398438,6.9003906 l 0.037109,-0.00977 c 0.1479673,-0.04332 0.3051005,-0.056761 0.4628907,-0.068359 0.054854,-0.00408 0.1094044,-0.02151 0.1640627,-0.02148 z M 22,10 l 0,0.5 0,9.5 3,0 0,-10 z m 1,1 1,0 0,8 -1,0 z m -5,1 0,0.5 0,7.5 3,0 0,-8 z m 1,1 1,0 0,6 -1,0 z m -14,2 0,1 1,0 0,-1 z m 2,0 0,1 5,0 0,-1 z m 7,0 0,0.5 0,4.5 3,0 0,-5 z m 1,1 1,0 0,3 -1,0 z m -10,1 0,1 1,0 0,-1 z m 2,0 0,1 5,0 0,-1 z m -2,2 0,1 1,0 0,-1 z m 2,0 0,1 5,0 0,-1 z"/></svg>
